<?xml version="1.0" standalone="no"?><!DOCTYPE svg PUBLIC "-//W3C//DTD SVG 1.1//EN" "http://www.w3.org/Graphics/SVG/1.1/DTD/svg11.dtd"><svg t="1742904851703" class="icon" viewBox="0 0 1024 1024" version="1.1" xmlns="http://www.w3.org/2000/svg" p-id="1781" xmlns:xlink="http://www.w3.org/1999/xlink" width="200" height="200"><path d="M231.296 643.456h537.6c28.288 0 51.2-22.912 51.2-51.2v-320c0-28.288-22.912-51.2-51.2-51.2h-537.6c-28.288 0-51.2 22.912-51.2 51.2v320c0 28.288 22.912 51.2 51.2 51.2z m358.4-130.816c0-12.544 10.24-22.784 22.784-22.784h95.36c12.544 0 22.784 10.24 22.784 22.784v66.816h-140.8v-66.816zM864.896 720.256H135.168v51.2H362.24l-77.824 77.824 0.128 0.256h72.064l78.08-78.08h130.688l78.08 78.08h72.064l0.128-0.256-77.824-77.824h227.072z" fill="#0e932e" p-id="1782"></path></svg>